<?xml version="1.0" encoding="UTF-8"?>
<svg id="Ebene_1" data-name="Ebene 1" xmlns="http://www.w3.org/2000/svg" viewBox="0 0 43 25">
  <defs>
    <style>
      .cls-1 {
        fill: #333;
      }

      .cls-2 {
        fill: #c78fda;
      }
    </style>
  </defs>
  <path class="cls-2" d="M25.13,1.45v21.77s3.97.68,6.62.29,8.87-.95,10.64-4.21-2.17-7.16-2.17-7.16l-6.98-1.73,2.66-2.19s1.95-1.34,1.09-4.58-5.87-3.09-5.87-3.09l-5.99.9Z"/>
  <path id="Vector" class="cls-1" d="M25.13,1.45l-.12-.49c-.22.06-.38.26-.38.49h.5ZM25.13,23.22h-.5c0,.25.18.46.42.49l.08-.49ZM42.38,18.04l-.49-.09h0l.49.09ZM31.75,9.78c-.27.04-.46.29-.42.57.04.27.29.46.57.42l-.14-.99ZM11.64,22.75l-.37-.33s-.03.03-.04.05l.41.28ZM.62,19.86l.49-.09h0l-.49.09ZM11.95,10.74l-.05.5c.27.03.51-.17.54-.44.03-.27-.16-.52-.43-.55l-.07.49ZM6.78,3.71l-.48-.15h0l.48.15ZM18.85,1.98c.27.07.54-.1.61-.36.07-.27-.1-.54-.36-.61l-.24.97ZM17.31,8.45l-.48-.14h0l.48.14ZM15.21,8.45l.47.17-.47-.17ZM20.44,8.45l.49.07h0l-.49-.07ZM18.67,8.45l.48.14h0l-.48-.14ZM17.31,22.75l-.5.03.5-.03ZM22.25,10.01l.5.04c.02-.27-.18-.51-.45-.54-.27-.02-.51.18-.54.45l.5.05ZM21.47,24.08c.1.26.39.39.65.29.26-.1.39-.39.29-.65l-.93.36ZM22.87,5.46c.18-.21.16-.53-.05-.7-.21-.18-.53-.16-.7.05l.76.65ZM21.63,7.79c.04.27.29.47.56.43.27-.04.47-.29.43-.56l-.99.13ZM25.13,1.45h-.5v21.77h1V1.45h-.5ZM25.13,23.22l-.08.49c2.27.36,6.34.72,10.01.15,3.63-.56,7.14-2.09,7.81-5.73l-.49-.09-.49-.09c-.55,2.95-3.41,4.37-6.98,4.92-3.53.55-7.48.2-9.7-.15l-.08.49ZM42.38,18.04l.49.09c.33-1.76,0-3.23-.74-4.42-.74-1.18-1.87-2.04-3.12-2.65-2.48-1.22-5.53-1.53-7.27-1.28l.07.49.07.49c1.55-.22,4.39.06,6.68,1.19,1.14.56,2.1,1.32,2.72,2.29.61.96.89,2.17.6,3.7l.49.09ZM31.82,10.27l.07.49c2.17-.31,3.85-1.08,4.82-2.36.98-1.3,1.14-3.01.52-4.99l-.48.15-.48.15c.56,1.78.36,3.13-.37,4.09-.74.98-2.11,1.68-4.16,1.97l.07.49ZM36.75,3.57l.48-.15c-.33-1.04-.91-1.83-1.71-2.38-.79-.55-1.77-.84-2.85-.97-2.15-.25-4.83.19-7.66.89l.12.49.12.48c2.81-.7,5.34-1.1,7.31-.87.97.11,1.78.37,2.39.8.61.42,1.06,1.02,1.33,1.86l.48-.15ZM11.64,22.75l-.41-.28c-.08.11-.26.28-.58.47-.31.19-.71.37-1.18.53-.94.33-2.1.55-3.26.52-1.16-.03-2.29-.31-3.19-.95-.89-.64-1.61-1.66-1.91-3.28l-.49.09-.49.09c.34,1.84,1.18,3.1,2.31,3.91,1.11.8,2.45,1.11,3.75,1.14,1.3.03,2.58-.22,3.61-.58.52-.18.98-.39,1.36-.62.37-.22.7-.48.89-.76l-.41-.28ZM.62,19.86l.49-.09c-.57-3.09,1.11-5.29,3.49-6.71,2.39-1.44,5.37-2,7.07-1.84l.05-.5.05-.5c-1.92-.18-5.11.45-7.67,1.98C1.51,13.75-.55,16.29.13,19.95l.49-.09ZM11.71,10.71l-.05.5c.08,0,.15.02.22.03l.07-.49.07-.49c-.09-.01-.17-.02-.26-.03l-.05.5ZM11.95,10.74l.05-.5c-.07,0-.15-.02-.22-.03l-.07.5-.07.5c.09.01.17.02.26.03l.05-.5ZM11.71,10.71l.07-.5c-1.35-.19-2.77-.92-3.7-2.04-.92-1.1-1.37-2.57-.82-4.32l-.48-.15-.48-.15c-.65,2.1-.11,3.92,1.01,5.26,1.1,1.32,2.75,2.17,4.33,2.39l.07-.5ZM6.78,3.71l.48.15c.28-.88.76-1.51,1.4-1.96.65-.45,1.5-.72,2.52-.84,2.06-.24,4.73.18,7.67.91l.12-.49.12-.49C16.13.27,13.32-.18,11.07.07c-1.13.13-2.15.44-2.97,1.01-.83.57-1.45,1.39-1.79,2.48l.48.15ZM11.64,22.75l.37.33c.49-.55.96-1.3,1.41-2.18l-.44-.23-.44-.23c-.43.85-.86,1.51-1.27,1.97l.37.33ZM12.98,20.68l.44.23c1.49-2.89,2.93-7.49,4.36-12.32l-.48-.14-.48-.14c-1.43,4.85-2.85,9.35-4.29,12.14l.44.23ZM17.31,8.45l.48.14c.4-1.37.58-2.35.56-2.98,0-.3-.06-.63-.25-.86-.11-.13-.25-.23-.43-.27-.17-.04-.33,0-.47.04-.25.09-.47.28-.67.48-.2.21-.41.49-.61.81-.41.64-.82,1.49-1.17,2.48l.47.17.47.17c.33-.93.71-1.71,1.07-2.27.18-.28.35-.5.5-.66.16-.17.25-.22.28-.23,0,0-.03.01-.09,0-.07-.01-.11-.05-.14-.08-.02-.03.02.02.03.27.01.47-.12,1.32-.52,2.67l.48.14ZM15.21,8.45l-.47-.17c-.98,2.76-2.08,8.54-2.26,12.37l.5.02.5.02c.18-3.75,1.26-9.43,2.2-12.09l-.47-.17ZM12.98,20.68l-.5-.02c-.05,1.09-.03,2.05.09,2.76.06.35.16.68.32.94.17.27.44.51.84.51v-1c.06,0,.06.05.01-.04-.06-.1-.13-.28-.18-.59-.11-.59-.13-1.47-.08-2.53l-.5-.02ZM20.44,8.45l.49.07c.13-.88.17-1.68.14-2.29-.01-.3-.05-.58-.11-.81-.05-.2-.15-.48-.39-.64-.14-.1-.31-.14-.49-.11-.17.03-.3.11-.39.19-.19.15-.35.39-.49.67-.3.56-.64,1.47-1.01,2.79l.48.14.48.14c.37-1.3.68-2.13.93-2.59.13-.24.21-.34.25-.37.01-.01-.02.02-.09.03-.09.01-.17-.01-.23-.05-.05-.03-.06-.06-.05-.04,0,.02.02.05.04.12.04.13.06.33.08.6.03.53-.01,1.25-.13,2.1l.5.07ZM18.67,8.45l-.48-.14c-.93,3.3-1.3,7.14-1.4,10.15l.5.02.5.02c.11-2.97.47-6.73,1.37-9.92l-.48-.14ZM17.28,18.48l-.5-.02c-.07,1.84-.03,3.38.02,4.32l.5-.03.5-.03c-.06-.9-.09-2.41-.02-4.22l-.5-.02ZM17.31,22.75l-.5.03c.05.81.44,1.63,1.26,1.72.39.04.77-.1,1.1-.36.33-.26.65-.64.95-1.15l-.43-.25-.43-.25c-.25.43-.49.7-.69.85-.2.15-.33.17-.39.16-.07,0-.33-.13-.38-.79l-.5.03ZM19.69,22.75l.43.25c.31-.53.59-1.37.85-2.35.27-.99.52-2.17.75-3.4.46-2.47.83-5.2,1.03-7.19l-.5-.05-.5-.05c-.19,1.96-.56,4.66-1.01,7.1-.23,1.22-.47,2.37-.73,3.33-.26.97-.52,1.7-.75,2.11l.43.25ZM22.25,10.01l-.5-.04c-.15,1.95-.47,4.84-.62,7.51-.08,1.34-.12,2.65-.08,3.78.04,1.12.16,2.12.42,2.82l.47-.18.47-.18c-.2-.53-.32-1.39-.36-2.5-.04-1.09,0-2.36.08-3.69.16-2.67.47-5.49.62-7.49l-.5-.04ZM13.73,24.36v.5c.24,0,.45-.09.62-.2.17-.11.33-.26.49-.43.31-.34.62-.81.94-1.35.63-1.1,1.32-2.59,1.97-4.2l-.46-.19-.46-.19c-.65,1.59-1.31,3.04-1.91,4.08-.3.52-.58.92-.81,1.18-.12.13-.22.21-.29.26-.07.05-.1.04-.07.04v.5ZM17.28,18.48l.46.19c1.51-3.73,2.91-8.23,3.19-10.15l-.49-.07-.5-.07c-.25,1.79-1.62,6.2-3.12,9.92l.46.19ZM22.49,5.13l-.38-.33c-.47.55-.6,1.16-.61,1.7-.01.51.09,1.02.13,1.28l.5-.07.5-.07c-.05-.36-.13-.71-.12-1.13,0-.39.1-.76.37-1.07l-.38-.33Z"/>
</svg>