<svg width="37" height="29" viewBox="0 0 37 29" fill="none" xmlns="http://www.w3.org/2000/svg">
<path d="M18.0029 0H33.0029C35.2121 0 37.0029 1.79086 37.0029 4V25C37.0029 27.2091 35.2121 29 33.0029 29H18.0029V0Z" fill="#C78FDA"/>
<path d="M4 28.5C2.067 28.5 0.5 26.933 0.5 25L0.499998 4C0.499998 2.06701 2.067 0.500002 4 0.500001L18.5 0.5L18.5 28.5L4 28.5Z" stroke="#C78FDA"/>
<path d="M7.00293 22.8047H18.0029V6H7.00293V9.36328H15.1592V12.7266H9.63965V16.0898H15.1592V19.4414H7.00293V22.8047Z" fill="white"/>
<path d="M31.4443 17.7656C31.4443 18.4609 31.3115 19.1133 31.0459 19.7227C30.7803 20.332 30.417 20.8672 29.9561 21.3281C29.5029 21.7812 28.9717 22.1406 28.3623 22.4062C27.7529 22.6719 27.1006 22.8047 26.4053 22.8047H18.0029V6H26.4053C27.1006 6 27.7529 6.13281 28.3623 6.39844C28.9717 6.66406 29.5029 7.02734 29.9561 7.48828C30.417 7.94141 30.7803 8.47266 31.0459 9.08203C31.3115 9.69141 31.4443 10.3438 31.4443 11.0391C31.4443 11.3516 31.4014 11.6719 31.3154 12C31.2295 12.3281 31.1084 12.6445 30.9521 12.9492C30.7959 13.2539 30.6084 13.5312 30.3896 13.7812C30.1709 14.0312 29.9287 14.2383 29.6631 14.4023C29.9365 14.5508 30.1826 14.7539 30.4014 15.0117C30.6201 15.2617 30.8076 15.5391 30.9639 15.8438C31.1201 16.1484 31.2373 16.4688 31.3154 16.8047C31.4014 17.1328 31.4443 17.4531 31.4443 17.7656ZM21.3662 19.4414H26.4053C26.6396 19.4414 26.8584 19.3984 27.0615 19.3125C27.2646 19.2266 27.4404 19.1094 27.5889 18.9609C27.7451 18.8047 27.8662 18.625 27.9521 18.4219C28.0381 18.2188 28.0811 18 28.0811 17.7656C28.0811 17.5312 28.0381 17.3125 27.9521 17.1094C27.8662 16.9062 27.7451 16.7305 27.5889 16.582C27.4404 16.4258 27.2646 16.3047 27.0615 16.2188C26.8584 16.1328 26.6396 16.0898 26.4053 16.0898H21.3662V19.4414ZM21.3662 12.7266H26.4053C26.6396 12.7266 26.8584 12.6836 27.0615 12.5977C27.2646 12.5117 27.4404 12.3945 27.5889 12.2461C27.7451 12.0898 27.8662 11.9102 27.9521 11.707C28.0381 11.4961 28.0811 11.2734 28.0811 11.0391C28.0811 10.8047 28.0381 10.5859 27.9521 10.3828C27.8662 10.1797 27.7451 10.0039 27.5889 9.85547C27.4404 9.69922 27.2646 9.57812 27.0615 9.49219C26.8584 9.40625 26.6396 9.36328 26.4053 9.36328H21.3662V12.7266Z" fill="white"/>
<path d="M7.00293 22.8047H18.0029V6H7.00293V9.36328H15.1592V12.7266H9.63965V16.0898H15.1592V19.4414H7.00293V22.8047Z" fill="#C78FDA"/>
</svg>
