<svg width="36" height="29" viewBox="0 0 36 29" fill="none" xmlns="http://www.w3.org/2000/svg">
<rect width="36" height="29" rx="4" fill="#C78FDA"/>
<path d="M6 22.8047H17V6H6V9.36328H14.1562V12.7266H8.63672V16.0898H14.1562V19.4414H6V22.8047Z" fill="white"/>
<path d="M30.4414 17.7656C30.4414 18.4609 30.3086 19.1133 30.043 19.7227C29.7773 20.332 29.4141 20.8672 28.9531 21.3281C28.5 21.7812 27.9688 22.1406 27.3594 22.4062C26.75 22.6719 26.0977 22.8047 25.4023 22.8047H17V6H25.4023C26.0977 6 26.75 6.13281 27.3594 6.39844C27.9688 6.66406 28.5 7.02734 28.9531 7.48828C29.4141 7.94141 29.7773 8.47266 30.043 9.08203C30.3086 9.69141 30.4414 10.3438 30.4414 11.0391C30.4414 11.3516 30.3984 11.6719 30.3125 12C30.2266 12.3281 30.1055 12.6445 29.9492 12.9492C29.793 13.2539 29.6055 13.5312 29.3867 13.7812C29.168 14.0312 28.9258 14.2383 28.6602 14.4023C28.9336 14.5508 29.1797 14.7539 29.3984 15.0117C29.6172 15.2617 29.8047 15.5391 29.9609 15.8438C30.1172 16.1484 30.2344 16.4688 30.3125 16.8047C30.3984 17.1328 30.4414 17.4531 30.4414 17.7656ZM20.3633 19.4414H25.4023C25.6367 19.4414 25.8555 19.3984 26.0586 19.3125C26.2617 19.2266 26.4375 19.1094 26.5859 18.9609C26.7422 18.8047 26.8633 18.625 26.9492 18.4219C27.0352 18.2188 27.0781 18 27.0781 17.7656C27.0781 17.5312 27.0352 17.3125 26.9492 17.1094C26.8633 16.9062 26.7422 16.7305 26.5859 16.582C26.4375 16.4258 26.2617 16.3047 26.0586 16.2188C25.8555 16.1328 25.6367 16.0898 25.4023 16.0898H20.3633V19.4414ZM20.3633 12.7266H25.4023C25.6367 12.7266 25.8555 12.6836 26.0586 12.5977C26.2617 12.5117 26.4375 12.3945 26.5859 12.2461C26.7422 12.0898 26.8633 11.9102 26.9492 11.707C27.0352 11.4961 27.0781 11.2734 27.0781 11.0391C27.0781 10.8047 27.0352 10.5859 26.9492 10.3828C26.8633 10.1797 26.7422 10.0039 26.5859 9.85547C26.4375 9.69922 26.2617 9.57812 26.0586 9.49219C25.8555 9.40625 25.6367 9.36328 25.4023 9.36328H20.3633V12.7266Z" fill="white"/>
<rect x="14" y="6" width="3" height="20" fill="#C78FDA"/>
</svg>
