<svg width="188" height="35" viewBox="0 0 188 35" fill="none" xmlns="http://www.w3.org/2000/svg">
<path d="M16.5977 6.82422C16.8581 6.69401 17.099 6.62891 17.3203 6.62891C17.75 6.62891 18.1081 6.90885 18.3945 7.46875C18.5508 7.78125 18.6289 8.05469 18.6289 8.28906C18.6289 8.71875 18.362 9.0638 17.8281 9.32422L4.70312 15.6133L17.8281 21.9023C18.362 22.1628 18.6289 22.5078 18.6289 22.9375C18.6289 23.1719 18.5508 23.4453 18.3945 23.7578C18.1081 24.3177 17.75 24.5977 17.3203 24.5977C17.099 24.5977 16.8581 24.5326 16.5977 24.4023L1.42188 16.9609C1.09635 16.8047 0.861979 16.6224 0.71875 16.4141C0.575521 16.2057 0.503906 15.9388 0.503906 15.6133C0.503906 15.2878 0.575521 15.0208 0.71875 14.8125C0.861979 14.6042 1.09635 14.4219 1.42188 14.2656L16.5977 6.82422ZM41.5586 3.38672C42.0924 3.38672 42.4701 3.48438 42.6914 3.67969C42.9128 3.875 43.0234 4.20052 43.0234 4.65625V11.1016C43.0234 11.5573 42.9128 11.8828 42.6914 12.0781C42.4701 12.2734 42.0924 12.3711 41.5586 12.3711C41.0247 12.3711 40.6471 12.2734 40.4258 12.0781C40.2044 11.8828 40.0938 11.5573 40.0938 11.1016C40.0938 10.2161 39.8919 9.40885 39.4883 8.67969C39.0977 7.95052 38.4922 7.37109 37.6719 6.94141C36.8516 6.4987 35.8359 6.27734 34.625 6.27734C33.2188 6.27734 31.9688 6.64844 30.875 7.39062C29.7943 8.13281 28.9479 9.19401 28.3359 10.5742C27.737 11.9544 27.4375 13.569 27.4375 15.418C27.4375 17.2669 27.724 18.8815 28.2969 20.2617C28.8698 21.6289 29.6836 22.6836 30.7383 23.4258C31.793 24.168 33.0234 24.5391 34.4297 24.5391C35.7188 24.5391 36.9492 24.3503 38.1211 23.9727C39.293 23.5951 40.3477 23.0482 41.2852 22.332C41.5065 22.1497 41.7474 22.0586 42.0078 22.0586C42.3984 22.0586 42.7435 22.3125 43.043 22.8203C43.2773 23.2109 43.3945 23.556 43.3945 23.8555C43.3945 24.2461 43.1927 24.5846 42.7891 24.8711C41.5781 25.7174 40.2565 26.3555 38.8242 26.7852C37.4049 27.2148 35.9401 27.4297 34.4297 27.4297C32.3984 27.4297 30.6211 26.9349 29.0977 25.9453C27.5872 24.9427 26.4154 23.5365 25.582 21.7266C24.7617 19.9167 24.3516 17.8138 24.3516 15.418C24.3516 13.0352 24.7747 10.9388 25.6211 9.12891C26.4674 7.30599 27.6523 5.89323 29.1758 4.89062C30.7122 3.88802 32.4635 3.38672 34.4297 3.38672C35.6536 3.38672 36.7409 3.59505 37.6914 4.01172C38.6419 4.42839 39.4427 5.02083 40.0938 5.78906V4.65625C40.0938 4.20052 40.2044 3.875 40.4258 3.67969C40.6471 3.48438 41.0247 3.38672 41.5586 3.38672ZM58.0234 8.52344C59.8073 8.52344 61.4154 8.92708 62.8477 9.73438C64.2799 10.5417 65.3997 11.668 66.207 13.1133C67.0273 14.5456 67.4375 16.1667 67.4375 17.9766C67.4375 19.7865 67.0273 21.4141 66.207 22.8594C65.3997 24.2917 64.2799 25.4115 62.8477 26.2188C61.4154 27.026 59.8073 27.4297 58.0234 27.4297C56.2396 27.4297 54.6315 27.026 53.1992 26.2188C51.7669 25.4115 50.6406 24.2917 49.8203 22.8594C49.013 21.4141 48.6094 19.7865 48.6094 17.9766C48.6094 16.1667 49.013 14.5456 49.8203 13.1133C50.6406 11.668 51.7669 10.5417 53.1992 9.73438C54.6315 8.92708 56.2396 8.52344 58.0234 8.52344ZM58.0234 11.4141C56.7604 11.4141 55.6471 11.694 54.6836 12.2539C53.7331 12.8008 52.9974 13.5755 52.4766 14.5781C51.9557 15.5677 51.6953 16.7005 51.6953 17.9766C51.6953 19.2526 51.9557 20.3919 52.4766 21.3945C52.9974 22.3841 53.7331 23.1589 54.6836 23.7188C55.6471 24.2656 56.7604 24.5391 58.0234 24.5391C59.2865 24.5391 60.3932 24.2656 61.3438 23.7188C62.3073 23.1589 63.0495 22.3841 63.5703 21.3945C64.0911 20.3919 64.3516 19.2526 64.3516 17.9766C64.3516 16.7005 64.0911 15.5677 63.5703 14.5781C63.0495 13.5755 62.3073 12.8008 61.3438 12.2539C60.3932 11.694 59.2865 11.4141 58.0234 11.4141ZM88.8242 1.375C89.2669 1.375 89.5794 1.47917 89.7617 1.6875C89.957 1.88281 90.0547 2.22135 90.0547 2.70312V24.3438H91.6562C92.099 24.3438 92.4115 24.4479 92.5938 24.6562C92.7891 24.8516 92.8867 25.1901 92.8867 25.6719C92.8867 26.1536 92.7891 26.4987 92.5938 26.707C92.4115 26.9023 92.099 27 91.6562 27H88.5508C88.1081 27 87.7891 26.9023 87.5938 26.707C87.4115 26.4987 87.3203 26.1536 87.3203 25.6719V24.1094C86.5 25.1771 85.5495 25.9974 84.4688 26.5703C83.388 27.1432 82.2096 27.4297 80.9336 27.4297C79.319 27.4297 77.8737 27.0521 76.5977 26.2969C75.3216 25.5286 74.319 24.4349 73.5898 23.0156C72.8607 21.5833 72.4961 19.9036 72.4961 17.9766C72.4961 16.0495 72.8607 14.3763 73.5898 12.957C74.319 11.5247 75.3216 10.431 76.5977 9.67578C77.8737 8.90755 79.319 8.52344 80.9336 8.52344C83.3815 8.52344 85.4453 9.59766 87.125 11.7461V4.03125H83.9609C83.5182 4.03125 83.1992 3.93359 83.0039 3.73828C82.8216 3.52995 82.7305 3.1849 82.7305 2.70312C82.7305 2.22135 82.8216 1.88281 83.0039 1.6875C83.1992 1.47917 83.5182 1.375 83.9609 1.375H88.8242ZM81.1289 11.4141C79.9701 11.4141 78.974 11.694 78.1406 12.2539C77.3073 12.8008 76.6693 13.569 76.2266 14.5586C75.7969 15.5482 75.582 16.6875 75.582 17.9766C75.582 19.2656 75.7969 20.4049 76.2266 21.3945C76.6693 22.3841 77.3073 23.1589 78.1406 23.7188C78.974 24.2656 79.9701 24.5391 81.1289 24.5391C82.2878 24.5391 83.3164 24.2786 84.2148 23.7578C85.1263 23.237 85.8359 22.4818 86.3438 21.4922C86.8646 20.5026 87.125 19.3307 87.125 17.9766C87.125 16.6224 86.8646 15.4505 86.3438 14.4609C85.8359 13.4714 85.1263 12.7161 84.2148 12.1953C83.3164 11.6745 82.2878 11.4141 81.1289 11.4141ZM106.695 8.95312C107.138 8.95312 107.451 9.05729 107.633 9.26562C107.828 9.46094 107.926 9.79948 107.926 10.2812V24.3438H114.195C114.638 24.3438 114.951 24.4479 115.133 24.6562C115.328 24.8516 115.426 25.1901 115.426 25.6719C115.426 26.1536 115.328 26.4987 115.133 26.707C114.951 26.9023 114.638 27 114.195 27H98.8828C98.4401 27 98.1211 26.9023 97.9258 26.707C97.7435 26.4987 97.6523 26.1536 97.6523 25.6719C97.6523 25.1901 97.7435 24.8516 97.9258 24.6562C98.1211 24.4479 98.4401 24.3438 98.8828 24.3438H104.996V11.6094H100.055C99.612 11.6094 99.293 11.5117 99.0977 11.3164C98.9154 11.1081 98.8242 10.763 98.8242 10.2812C98.8242 9.79948 98.9154 9.46094 99.0977 9.26562C99.293 9.05729 99.612 8.95312 100.055 8.95312H106.695ZM106.07 0.378906C106.786 0.378906 107.275 0.476562 107.535 0.671875C107.796 0.854167 107.926 1.17969 107.926 1.64844V4.1875C107.926 4.65625 107.796 4.98828 107.535 5.18359C107.275 5.36589 106.786 5.45703 106.07 5.45703C105.354 5.45703 104.866 5.36589 104.605 5.18359C104.345 4.98828 104.215 4.65625 104.215 4.1875V1.64844C104.215 1.17969 104.345 0.854167 104.605 0.671875C104.866 0.476562 105.354 0.378906 106.07 0.378906ZM132.184 8.52344C133.368 8.52344 134.397 8.78385 135.27 9.30469C136.142 9.8125 136.812 10.5482 137.281 11.5117C137.75 12.4753 137.984 13.6016 137.984 14.8906V24.3438H139.586C140.029 24.3438 140.341 24.4479 140.523 24.6562C140.719 24.8516 140.816 25.1901 140.816 25.6719C140.816 26.1536 140.719 26.4987 140.523 26.707C140.341 26.9023 140.029 27 139.586 27H133.258C132.815 27 132.496 26.9023 132.301 26.707C132.118 26.4987 132.027 26.1536 132.027 25.6719C132.027 25.1901 132.118 24.8516 132.301 24.6562C132.496 24.4479 132.815 24.3438 133.258 24.3438H135.055V15.1836C135.055 14.0247 134.788 13.1068 134.254 12.4297C133.72 11.7526 132.932 11.4141 131.891 11.4141C130.784 11.4141 129.749 11.7331 128.785 12.3711C127.835 13.0091 127.073 13.888 126.5 15.0078C125.927 16.1276 125.641 17.3776 125.641 18.7578V24.3438H127.438C127.88 24.3438 128.193 24.4479 128.375 24.6562C128.57 24.8516 128.668 25.1901 128.668 25.6719C128.668 26.1536 128.57 26.4987 128.375 26.707C128.193 26.9023 127.88 27 127.438 27H121.109C120.667 27 120.348 26.9023 120.152 26.707C119.97 26.4987 119.879 26.1536 119.879 25.6719C119.879 25.1901 119.97 24.8516 120.152 24.6562C120.348 24.4479 120.667 24.3438 121.109 24.3438H122.711V11.6094H120.719C120.276 11.6094 119.957 11.5117 119.762 11.3164C119.579 11.1081 119.488 10.763 119.488 10.2812C119.488 9.79948 119.579 9.46094 119.762 9.26562C119.957 9.05729 120.276 8.95312 120.719 8.95312H124.215C124.658 8.95312 124.97 9.05729 125.152 9.26562C125.348 9.46094 125.445 9.79948 125.445 10.2812V12.625C126.305 11.2969 127.307 10.2812 128.453 9.57812C129.612 8.875 130.855 8.52344 132.184 8.52344ZM152.887 8.52344C154.163 8.52344 155.341 8.8099 156.422 9.38281C157.503 9.95573 158.453 10.776 159.273 11.8438V10.2812C159.273 9.79948 159.365 9.46094 159.547 9.26562C159.742 9.05729 160.061 8.95312 160.504 8.95312H163.609C164.052 8.95312 164.365 9.05729 164.547 9.26562C164.742 9.46094 164.84 9.79948 164.84 10.2812C164.84 10.763 164.742 11.1081 164.547 11.3164C164.365 11.5117 164.052 11.6094 163.609 11.6094H162.008V27.5859C162.008 29.1354 161.676 30.4635 161.012 31.5703C160.361 32.6901 159.41 33.543 158.16 34.1289C156.91 34.7148 155.406 35.0078 153.648 35.0078C152.398 35.0078 151.135 34.8971 149.859 34.6758C148.583 34.4674 147.392 34.1615 146.285 33.7578C145.777 33.5755 145.523 33.2305 145.523 32.7227C145.523 32.5143 145.576 32.2539 145.68 31.9414C145.914 31.2253 146.285 30.8672 146.793 30.8672C146.936 30.8672 147.079 30.8932 147.223 30.9453C148.238 31.3099 149.306 31.5964 150.426 31.8047C151.546 32.013 152.62 32.1172 153.648 32.1172C155.445 32.1172 156.799 31.6875 157.711 30.8281C158.622 29.9818 159.078 28.8164 159.078 27.332V23.4062C157.464 25.4375 155.4 26.4531 152.887 26.4531C151.272 26.4531 149.827 26.0951 148.551 25.3789C147.275 24.6497 146.272 23.6081 145.543 22.2539C144.814 20.8997 144.449 19.3112 144.449 17.4883C144.449 15.6654 144.814 14.0768 145.543 12.7227C146.272 11.3685 147.275 10.3333 148.551 9.61719C149.827 8.88802 151.272 8.52344 152.887 8.52344ZM153.082 11.4141C151.923 11.4141 150.927 11.6745 150.094 12.1953C149.26 12.7031 148.622 13.4193 148.18 14.3438C147.75 15.2552 147.535 16.3034 147.535 17.4883C147.535 18.6732 147.75 19.7279 148.18 20.6523C148.622 21.5638 149.26 22.2799 150.094 22.8008C150.927 23.3086 151.923 23.5625 153.082 23.5625C154.241 23.5625 155.27 23.3216 156.168 22.8398C157.079 22.3581 157.789 21.6615 158.297 20.75C158.818 19.8255 159.078 18.7383 159.078 17.4883C159.078 16.2383 158.818 15.1576 158.297 14.2461C157.789 13.3216 157.079 12.6185 156.168 12.1367C155.27 11.6549 154.241 11.4141 153.082 11.4141ZM186.578 14.2656C186.904 14.4219 187.138 14.6042 187.281 14.8125C187.424 15.0208 187.496 15.2878 187.496 15.6133C187.496 15.9388 187.424 16.2057 187.281 16.4141C187.138 16.6224 186.904 16.8047 186.578 16.9609L171.402 24.4023C171.142 24.5326 170.901 24.5977 170.68 24.5977C170.25 24.5977 169.892 24.3177 169.605 23.7578C169.449 23.4453 169.371 23.1719 169.371 22.9375C169.371 22.5078 169.638 22.1628 170.172 21.9023L183.297 15.6133L170.172 9.32422C169.638 9.0638 169.371 8.71875 169.371 8.28906C169.371 8.05469 169.449 7.78125 169.605 7.46875C169.892 6.90885 170.25 6.62891 170.68 6.62891C170.901 6.62891 171.142 6.69401 171.402 6.82422L186.578 14.2656Z" fill="black"/>
</svg>
