<svg width="19" height="20" viewBox="0 0 19 20" fill="none" xmlns="http://www.w3.org/2000/svg">
<rect x="3.5" y="3.5" width="12" height="12" rx="1.5" stroke="black"/>
<rect x="5" y="8" width="2" height="6" fill="black"/>
<rect x="8" y="8" width="2" height="6" fill="black"/>
<path d="M12 10.4998C12 9.99942 11.7314 9.61548 11.5 9.49978C11.1507 9.32513 10.8493 9.3255 10.5 9.50014C10.253 9.62364 10 10.0001 10 10.0001V8.50014C10 8.50014 10.5788 8.11503 11 8.00014C11.5651 7.84601 12.5 8.00014 12.5 8.00014C12.5 8.00014 13.1913 8.19141 13.5 8.50014C13.8087 8.80888 14 8.99978 14 9.99978C14 10.9998 14 14.0001 14 14.0001H12C12 14.0001 12 11.0001 12 10.4998Z" fill="black"/>
<circle cx="6" cy="6" r="1" fill="black"/>
</svg>
