<svg width="147" height="29" viewBox="0 0 147 29" fill="none" xmlns="http://www.w3.org/2000/svg">
<path d="M26.6914 28H19.6211L10.6562 15.6172C9.99219 15.6432 9.45182 15.6562 9.03516 15.6562C8.86589 15.6562 8.68359 15.6562 8.48828 15.6562C8.29297 15.6432 8.09115 15.6302 7.88281 15.6172V23.3125C7.88281 24.9792 8.0651 26.0143 8.42969 26.418C8.92448 26.9909 9.66667 27.2773 10.6562 27.2773H11.6914V28H0.34375V27.2773H1.33984C2.45964 27.2773 3.26042 26.9128 3.74219 26.1836C4.01562 25.7799 4.15234 24.8229 4.15234 23.3125V6.20312C4.15234 4.53646 3.97005 3.5013 3.60547 3.09766C3.09766 2.52474 2.34245 2.23828 1.33984 2.23828H0.34375V1.51562H9.99219C12.8047 1.51562 14.875 1.72396 16.2031 2.14062C17.5443 2.54427 18.6771 3.29948 19.6016 4.40625C20.5391 5.5 21.0078 6.80859 21.0078 8.33203C21.0078 9.95964 20.474 11.3724 19.4062 12.5703C18.3516 13.7682 16.7109 14.6146 14.4844 15.1094L19.9531 22.707C21.2031 24.4518 22.2773 25.6107 23.1758 26.1836C24.0742 26.7565 25.2461 27.1211 26.6914 27.2773V28ZM7.88281 14.3867C8.13021 14.3867 8.34505 14.3932 8.52734 14.4062C8.70964 14.4062 8.85938 14.4062 8.97656 14.4062C11.5026 14.4062 13.4036 13.8594 14.6797 12.7656C15.9688 11.6719 16.6133 10.2786 16.6133 8.58594C16.6133 6.93229 16.0924 5.59115 15.0508 4.5625C14.0221 3.52083 12.6549 3 10.9492 3C10.194 3 9.17188 3.1237 7.88281 3.37109V14.3867ZM30.5977 16.8477C30.5846 19.5039 31.2292 21.5872 32.5312 23.0977C33.8333 24.6081 35.3633 25.3633 37.1211 25.3633C38.293 25.3633 39.3086 25.0443 40.168 24.4062C41.0404 23.7552 41.7695 22.6484 42.3555 21.0859L42.9609 21.4766C42.6875 23.2604 41.8932 24.888 40.5781 26.3594C39.263 27.8177 37.6159 28.5469 35.6367 28.5469C33.4883 28.5469 31.6458 27.7135 30.1094 26.0469C28.5859 24.3672 27.8242 22.1146 27.8242 19.2891C27.8242 16.2292 28.6055 13.8464 30.168 12.1406C31.7435 10.4219 33.7161 9.5625 36.0859 9.5625C38.0911 9.5625 39.7383 10.2266 41.0273 11.5547C42.3164 12.8698 42.9609 14.6341 42.9609 16.8477H30.5977ZM30.5977 15.7148H38.8789C38.8138 14.569 38.6771 13.7617 38.4688 13.293C38.1432 12.5638 37.6549 11.9909 37.0039 11.5742C36.3659 11.1576 35.6953 10.9492 34.9922 10.9492C33.9115 10.9492 32.9414 11.3724 32.082 12.2188C31.2357 13.0521 30.7409 14.2174 30.5977 15.7148ZM56.9258 9.58203V15.6758H56.2812C55.7865 13.7617 55.1484 12.4596 54.3672 11.7695C53.599 11.0794 52.6159 10.7344 51.418 10.7344C50.5065 10.7344 49.7708 10.9753 49.2109 11.457C48.651 11.9388 48.3711 12.4727 48.3711 13.0586C48.3711 13.7878 48.5794 14.4128 48.9961 14.9336C49.3997 15.4674 50.2201 16.0339 51.457 16.6328L54.3086 18.0195C56.9518 19.3086 58.2734 21.0078 58.2734 23.1172C58.2734 24.7448 57.6549 26.0599 56.418 27.0625C55.194 28.0521 53.8203 28.5469 52.2969 28.5469C51.2031 28.5469 49.9531 28.3516 48.5469 27.9609C48.1172 27.8307 47.7656 27.7656 47.4922 27.7656C47.1927 27.7656 46.9583 27.9349 46.7891 28.2734H46.1445V21.8867H46.7891C47.1536 23.7096 47.8503 25.0833 48.8789 26.0078C49.9076 26.9323 51.0599 27.3945 52.3359 27.3945C53.2344 27.3945 53.9635 27.1341 54.5234 26.6133C55.0964 26.0794 55.3828 25.4414 55.3828 24.6992C55.3828 23.8008 55.0638 23.0456 54.4258 22.4336C53.8008 21.8216 52.5443 21.0469 50.6562 20.1094C48.7682 19.1719 47.5312 18.3255 46.9453 17.5703C46.3594 16.8281 46.0664 15.8906 46.0664 14.7578C46.0664 13.2865 46.5677 12.056 47.5703 11.0664C48.5859 10.0768 49.8945 9.58203 51.4961 9.58203C52.1992 9.58203 53.0521 9.73177 54.0547 10.0312C54.7188 10.2266 55.1615 10.3242 55.3828 10.3242C55.5911 10.3242 55.7539 10.2786 55.8711 10.1875C55.9883 10.0964 56.125 9.89453 56.2812 9.58203H56.9258ZM63.957 16.8477C63.944 19.5039 64.5885 21.5872 65.8906 23.0977C67.1927 24.6081 68.7227 25.3633 70.4805 25.3633C71.6523 25.3633 72.668 25.0443 73.5273 24.4062C74.3997 23.7552 75.1289 22.6484 75.7148 21.0859L76.3203 21.4766C76.0469 23.2604 75.2526 24.888 73.9375 26.3594C72.6224 27.8177 70.9753 28.5469 68.9961 28.5469C66.8477 28.5469 65.0052 27.7135 63.4688 26.0469C61.9453 24.3672 61.1836 22.1146 61.1836 19.2891C61.1836 16.2292 61.9648 13.8464 63.5273 12.1406C65.1029 10.4219 67.0755 9.5625 69.4453 9.5625C71.4505 9.5625 73.0977 10.2266 74.3867 11.5547C75.6758 12.8698 76.3203 14.6341 76.3203 16.8477H63.957ZM63.957 15.7148H72.2383C72.1732 14.569 72.0365 13.7617 71.8281 13.293C71.5026 12.5638 71.0143 11.9909 70.3633 11.5742C69.7253 11.1576 69.0547 10.9492 68.3516 10.9492C67.2708 10.9492 66.3008 11.3724 65.4414 12.2188C64.5951 13.0521 64.1003 14.2174 63.957 15.7148ZM88.8594 25.4219C87.0234 26.8411 85.8711 27.6615 85.4023 27.8828C84.6992 28.2083 83.9505 28.3711 83.1562 28.3711C81.9193 28.3711 80.8971 27.9479 80.0898 27.1016C79.2956 26.2552 78.8984 25.1419 78.8984 23.7617C78.8984 22.8893 79.0938 22.1341 79.4844 21.4961C80.0182 20.6107 80.9427 19.7773 82.2578 18.9961C83.5859 18.2148 85.7865 17.2643 88.8594 16.1445V15.4414C88.8594 13.6576 88.5729 12.4336 88 11.7695C87.4401 11.1055 86.6198 10.7734 85.5391 10.7734C84.7188 10.7734 84.0677 10.9948 83.5859 11.4375C83.0911 11.8802 82.8438 12.388 82.8438 12.9609L82.8828 14.0938C82.8828 14.6927 82.7266 15.1549 82.4141 15.4805C82.1146 15.806 81.7174 15.9688 81.2227 15.9688C80.7409 15.9688 80.3438 15.7995 80.0312 15.4609C79.7318 15.1224 79.582 14.6602 79.582 14.0742C79.582 12.9544 80.1549 11.9258 81.3008 10.9883C82.4466 10.0508 84.0547 9.58203 86.125 9.58203C87.7135 9.58203 89.0156 9.84896 90.0312 10.3828C90.7995 10.7865 91.3659 11.418 91.7305 12.2773C91.9648 12.8372 92.082 13.9831 92.082 15.7148V21.7891C92.082 23.4948 92.1146 24.543 92.1797 24.9336C92.2448 25.3112 92.349 25.5651 92.4922 25.6953C92.6484 25.8255 92.8242 25.8906 93.0195 25.8906C93.2279 25.8906 93.4102 25.8451 93.5664 25.7539C93.8398 25.5846 94.3672 25.1094 95.1484 24.3281V25.4219C93.6901 27.375 92.2969 28.3516 90.9688 28.3516C90.3307 28.3516 89.8229 28.1302 89.4453 27.6875C89.0677 27.2448 88.8724 26.4896 88.8594 25.4219ZM88.8594 24.1523V17.3359C86.8932 18.1172 85.6237 18.6706 85.0508 18.9961C84.0221 19.569 83.2865 20.168 82.8438 20.793C82.401 21.418 82.1797 22.1016 82.1797 22.8438C82.1797 23.7812 82.4596 24.5625 83.0195 25.1875C83.5794 25.7995 84.224 26.1055 84.9531 26.1055C85.9427 26.1055 87.2448 25.4544 88.8594 24.1523ZM101.73 9.58203V13.6055C103.228 10.9232 104.764 9.58203 106.34 9.58203C107.056 9.58203 107.648 9.80339 108.117 10.2461C108.586 10.6758 108.82 11.1771 108.82 11.75C108.82 12.2578 108.651 12.6875 108.312 13.0391C107.974 13.3906 107.57 13.5664 107.102 13.5664C106.646 13.5664 106.132 13.3451 105.559 12.9023C104.999 12.4466 104.582 12.2188 104.309 12.2188C104.074 12.2188 103.82 12.349 103.547 12.6094C102.961 13.1432 102.355 14.0221 101.73 15.2461V23.8203C101.73 24.8099 101.854 25.5586 102.102 26.0664C102.271 26.418 102.57 26.7109 103 26.9453C103.43 27.1797 104.048 27.2969 104.855 27.2969V28H95.6953V27.2969C96.6068 27.2969 97.2839 27.1536 97.7266 26.8672C98.0521 26.6589 98.2799 26.3268 98.4102 25.8711C98.4753 25.6497 98.5078 25.0182 98.5078 23.9766V17.043C98.5078 14.9596 98.4622 13.7227 98.3711 13.332C98.293 12.9284 98.1367 12.6354 97.9023 12.4531C97.681 12.2708 97.401 12.1797 97.0625 12.1797C96.6589 12.1797 96.2031 12.2773 95.6953 12.4727L95.5 11.7695L100.91 9.58203H101.73ZM125.012 21.2031C124.53 23.5599 123.586 25.3763 122.18 26.6523C120.773 27.9154 119.217 28.5469 117.512 28.5469C115.48 28.5469 113.71 27.694 112.199 25.9883C110.689 24.2826 109.934 21.9779 109.934 19.0742C109.934 16.2617 110.767 13.9766 112.434 12.2188C114.113 10.4609 116.125 9.58203 118.469 9.58203C120.227 9.58203 121.672 10.0508 122.805 10.9883C123.938 11.9128 124.504 12.8763 124.504 13.8789C124.504 14.3737 124.341 14.7773 124.016 15.0898C123.703 15.3893 123.26 15.5391 122.688 15.5391C121.919 15.5391 121.34 15.2917 120.949 14.7969C120.728 14.5234 120.578 14.0026 120.5 13.2344C120.435 12.4661 120.174 11.8802 119.719 11.4766C119.263 11.0859 118.632 10.8906 117.824 10.8906C116.522 10.8906 115.474 11.3724 114.68 12.3359C113.625 13.612 113.098 15.2982 113.098 17.3945C113.098 19.5299 113.618 21.418 114.66 23.0586C115.715 24.6862 117.134 25.5 118.918 25.5C120.194 25.5 121.34 25.0638 122.355 24.1914C123.072 23.5924 123.768 22.5052 124.445 20.9297L125.012 21.2031ZM132.844 0.226562V13.3125C134.289 11.724 135.435 10.7083 136.281 10.2656C137.128 9.8099 137.974 9.58203 138.82 9.58203C139.836 9.58203 140.708 9.86198 141.438 10.4219C142.167 10.9818 142.707 11.8607 143.059 13.0586C143.306 13.8919 143.43 15.4154 143.43 17.6289V23.957C143.43 25.0898 143.521 25.8646 143.703 26.2812C143.833 26.5938 144.055 26.8411 144.367 27.0234C144.68 27.2057 145.253 27.2969 146.086 27.2969V28H137.297V27.2969H137.707C138.54 27.2969 139.12 27.1732 139.445 26.9258C139.771 26.6654 139.999 26.2878 140.129 25.793C140.168 25.5846 140.188 24.9727 140.188 23.957V17.6289C140.188 15.6758 140.083 14.3932 139.875 13.7812C139.68 13.1693 139.361 12.7135 138.918 12.4141C138.475 12.1016 137.941 11.9453 137.316 11.9453C136.678 11.9453 136.014 12.1146 135.324 12.4531C134.634 12.7917 133.807 13.4753 132.844 14.5039V23.957C132.844 25.181 132.909 25.9427 133.039 26.2422C133.182 26.5417 133.436 26.7956 133.801 27.0039C134.178 27.1992 134.823 27.2969 135.734 27.2969V28H126.867V27.2969C127.661 27.2969 128.286 27.1732 128.742 26.9258C129.003 26.7956 129.211 26.5482 129.367 26.1836C129.523 25.819 129.602 25.0768 129.602 23.957V7.76562C129.602 5.72135 129.549 4.46484 129.445 3.99609C129.354 3.52734 129.204 3.20833 128.996 3.03906C128.801 2.86979 128.534 2.78516 128.195 2.78516C127.922 2.78516 127.479 2.88932 126.867 3.09766L126.594 2.41406L131.945 0.226562H132.844Z" fill="black"/>
</svg>
