<svg width="172" height="52" viewBox="0 0 172 52" fill="none" xmlns="http://www.w3.org/2000/svg">
<path d="M19.8541 4.16C19.8807 3.68 20.2141 3.26667 20.8541 2.92C21.5207 2.54666 22.1741 2.36 22.8141 2.36C23.6407 2.36 24.0407 2.66666 24.0141 3.28C23.5607 11.4133 22.7074 18.7067 21.4541 25.16C21.1874 26.4133 20.9341 27.4267 20.6941 28.2C20.4541 28.9467 20.0807 29.6667 19.5741 30.36C19.0674 31.0533 18.3874 31.64 17.5341 32.12C16.1207 32.92 14.5741 33.4267 12.8941 33.64C11.2141 33.8267 9.20073 33.9067 6.85406 33.88H5.77406C4.20073 33.88 2.9874 33.7067 2.13406 33.36C1.28073 33.0133 0.854063 32.24 0.854063 31.04C0.854063 30.7733 0.867396 30.56 0.894063 30.4C1.13406 28.72 1.64073 26.3867 2.41406 23.4L2.89406 21.44C3.88073 17.4667 4.7474 14.0933 5.49406 11.32C6.2674 8.54667 7.12073 5.82666 8.05406 3.16C8.1874 2.76 8.5474 2.42666 9.13406 2.16C9.72073 1.86667 10.2941 1.72 10.8541 1.72C11.2274 1.72 11.5341 1.8 11.7741 1.96C12.0141 2.09333 12.1341 2.30666 12.1341 2.6C12.1341 2.68 12.1074 2.82667 12.0541 3.04C10.9074 6.58667 9.52073 11.4933 7.89406 17.76C7.01406 21.2267 6.37406 23.9333 5.97406 25.88C5.68073 27.16 5.45406 28.2267 5.29406 29.08C5.24073 29.4533 5.21406 29.68 5.21406 29.76C5.21406 30.2133 5.36073 30.5067 5.65406 30.64C5.9474 30.7733 6.48073 30.8533 7.25406 30.88L8.21406 30.92C9.09406 31 10.0674 31.04 11.1341 31.04C13.8007 31.04 15.5074 30.52 16.2541 29.48C16.7074 28.84 17.0274 28.0133 17.2141 27C17.4274 25.9867 17.6007 24.7733 17.7341 23.36L17.9341 21.64C18.8407 15.8533 19.4807 10.0267 19.8541 4.16ZM54.4144 0.199997C55.0277 0.439998 55.3344 0.759998 55.3344 1.16C55.3344 1.4 55.2277 1.62667 55.0144 1.84C50.561 6.56 45.7344 12 40.5344 18.16C41.521 19.76 42.6144 21.4 43.8144 23.08C45.0144 24.76 45.721 25.76 45.9344 26.08L47.7344 28.64C47.8677 28.8533 47.9344 29.04 47.9344 29.2C47.9344 29.7067 47.5744 30.1733 46.8544 30.6C46.161 31.0267 45.481 31.24 44.8144 31.24C44.281 31.24 43.921 31.0933 43.7344 30.8L42.0544 28.4C40.2944 25.9467 38.7744 23.76 37.4944 21.84C34.2944 25.7067 31.4677 29.24 29.0144 32.44C28.7744 32.7333 28.3877 32.9733 27.8544 33.16C27.3477 33.3467 26.841 33.44 26.3344 33.44C25.9344 33.44 25.601 33.3733 25.3344 33.24C25.0944 33.1067 24.9744 32.92 24.9744 32.68C24.9744 32.4667 25.0944 32.2 25.3344 31.88C28.6944 27.48 32.1344 23.16 35.6544 18.92L34.8544 17.6C33.521 15.2533 32.3877 12.92 31.4544 10.6L31.0144 9.56C30.6944 8.84 30.441 8.21333 30.2544 7.68C30.0677 7.12 29.9744 6.58666 29.9744 6.08C29.9744 5.57333 30.0677 5.09333 30.2544 4.64C30.4144 4.21333 30.8144 3.86667 31.4544 3.6C32.0944 3.30666 32.721 3.16 33.3344 3.16C34.2144 3.16 34.6544 3.44 34.6544 4C34.6544 4.10667 34.6144 4.26667 34.5344 4.48C34.4544 4.66667 34.4144 4.88 34.4144 5.12C34.4144 5.65333 34.561 6.29333 34.8544 7.04C35.1477 7.78667 35.5344 8.64 36.0144 9.6L36.4944 10.56C37.081 11.8667 37.841 13.4 38.7744 15.16C43.201 10.0133 47.4277 5.4 51.4544 1.32C51.7744 0.999998 52.161 0.719999 52.6144 0.479999C53.0944 0.239998 53.5344 0.119998 53.9344 0.119998C54.041 0.119998 54.201 0.146665 54.4144 0.199997ZM86.2378 17.28C86.2378 16.0267 85.7845 14.88 84.8778 13.84C83.9711 12.8 82.8245 11.7733 81.4378 10.76C78.8778 8.94667 75.9578 7.32 72.6778 5.88C72.3045 8.14667 71.7711 11.5467 71.0778 16.08C70.8911 17.28 70.5711 19.28 70.1178 22.08C69.6911 24.88 69.2778 27.3733 68.8778 29.56C71.2778 28.6 73.3578 27.72 75.1178 26.92C76.8778 26.0933 78.5578 25.2 80.1578 24.24C81.9178 23.2267 83.3711 22.1733 84.5178 21.08C85.6645 19.9867 86.2378 18.72 86.2378 17.28ZM86.2378 9.56C89.0111 11.7467 90.3978 14.0267 90.3978 16.4C90.3978 16.7467 90.3578 17.12 90.2778 17.52C89.9578 19.1467 89.1445 20.6 87.8378 21.88C86.5311 23.16 84.8911 24.4267 82.9178 25.68C77.7178 28.96 71.3311 31.8 63.7578 34.2C63.4111 34.3067 63.0645 34.36 62.7178 34.36C62.3178 34.36 62.0111 34.28 61.7978 34.12C61.5578 33.9333 61.4378 33.7067 61.4378 33.44C61.4378 33.1733 61.5711 32.9067 61.8378 32.64C62.0778 32.3467 62.4378 32.1067 62.9178 31.92L64.6378 31.24C64.4511 31.0533 64.3978 30.84 64.4778 30.6L66.3978 18.96C67.1445 14.1067 67.9445 9.26667 68.7978 4.44L68.8378 4.24C68.2511 3.97333 67.3445 3.6 66.1178 3.12C65.7445 2.96 65.5578 2.74667 65.5578 2.48C65.5578 2.08 65.9178 1.66666 66.6378 1.24C67.3845 0.786664 68.0778 0.559998 68.7178 0.559998C68.9845 0.559998 69.1711 0.586665 69.2778 0.639999C73.1978 2.24 76.4511 3.68 79.0378 4.96C81.6511 6.24 84.0511 7.77333 86.2378 9.56ZM100.607 12C99.2469 13.04 98.1402 14.72 97.2869 17.04C99.9002 16.0533 102.26 15.2267 104.367 14.56C103.487 13.3333 102.594 12.5067 101.687 12.08C101.5 12 101.314 11.9467 101.127 11.92C100.967 11.8933 100.874 11.88 100.847 11.88C100.874 11.9067 100.847 11.9333 100.767 11.96C100.714 11.9867 100.66 12 100.607 12ZM100.767 9.16C101.194 9.05333 101.647 9 102.127 9C104.687 9 107.007 10.72 109.087 14.16C109.167 14.2667 109.207 14.4 109.207 14.56C109.207 14.8533 109.02 15.16 108.647 15.48C108.354 15.8 107.98 16.0533 107.527 16.24C104.86 17.4133 101.154 18.8133 96.4069 20.44C96.1402 21.8 96.0069 23.2 96.0069 24.64C96.0069 25.3067 96.0202 25.7867 96.0469 26.08C96.1002 27.28 96.3402 28.32 96.7669 29.2C96.9002 29.4933 97.0869 29.7733 97.3269 30.04C97.5935 30.3067 97.7935 30.48 97.9269 30.56C98.0069 30.6133 98.1402 30.64 98.3269 30.64C98.5135 30.64 98.7269 30.5867 98.9669 30.48C99.2335 30.3733 99.5269 30.2267 99.8469 30.04C100.62 29.5867 101.34 29.0667 102.007 28.48C102.674 27.8933 103.474 27.1333 104.407 26.2C104.78 25.8267 105.407 25.64 106.287 25.64C106.767 25.64 107.167 25.72 107.487 25.88C107.834 26.0133 108.007 26.2133 108.007 26.48C108.007 26.72 107.874 26.9867 107.607 27.28C105.954 29.0667 104.26 30.5867 102.527 31.84C100.794 33.0933 99.0602 33.72 97.3269 33.72C96.5002 33.72 95.7269 33.5467 95.0069 33.2C93.8069 32.64 92.9402 31.7467 92.4069 30.52C91.8735 29.2933 91.6069 27.8533 91.6069 26.2C91.6069 24.9733 91.7669 23.5333 92.0869 21.88L91.7669 21.96L91.4469 22.08C91.0469 22.2133 90.7269 22.28 90.4869 22.28C90.1135 22.28 89.8202 22.1867 89.6069 22C89.3935 21.8133 89.2869 21.5733 89.2869 21.28C89.2869 20.9333 89.4202 20.6 89.6869 20.28C89.9802 19.9333 90.4069 19.6533 90.9669 19.44L92.9269 18.68C93.1669 17.9333 93.5269 16.96 94.0069 15.76C94.7535 14.1067 95.6869 12.68 96.8069 11.48C97.9269 10.28 99.2469 9.50667 100.767 9.16ZM115.736 14.6C115.736 15.6133 115.99 16.5067 116.496 17.28C117.03 18.0533 117.67 18.7067 118.416 19.24C119.163 19.7733 120.176 20.4 121.456 21.12C123.19 22.1067 124.51 23 125.416 23.8C126.35 24.6 126.963 25.6 127.256 26.8C127.363 27.3333 127.416 27.72 127.416 27.96C127.416 29.8267 126.43 31.1733 124.456 32C122.483 32.8 120.243 33.2 117.736 33.2C116.75 33.2 115.883 33.1333 115.136 33C114.256 32.84 113.336 32.5333 112.376 32.08C111.443 31.6 110.656 31.0267 110.016 30.36C109.403 29.6667 109.096 28.96 109.096 28.24C109.096 27.12 109.963 26.0933 111.696 25.16C112.176 24.92 112.643 24.8 113.096 24.8C113.523 24.8 113.87 24.8933 114.136 25.08C114.43 25.2667 114.576 25.4933 114.576 25.76C114.576 26.24 114.19 26.7067 113.416 27.16C113.256 27.24 113.176 27.36 113.176 27.52C113.176 27.84 113.43 28.2267 113.936 28.68C114.443 29.1333 114.843 29.44 115.136 29.6C115.936 30.0533 117.216 30.3333 118.976 30.44C119.19 30.4667 119.563 30.48 120.096 30.48C121.056 30.48 121.83 30.32 122.416 30C123.003 29.68 123.256 29.0933 123.176 28.24C123.07 27.0933 121.91 25.8 119.696 24.36L118.176 23.4C116.79 22.5467 115.643 21.8 114.736 21.16C113.856 20.4933 113.096 19.7067 112.456 18.8C111.816 17.8667 111.496 16.8267 111.496 15.68C111.496 14.96 111.63 14.24 111.896 13.52C112.483 11.7867 113.576 10.4533 115.176 9.52C116.776 8.56 118.496 8.08 120.336 8.08C122.23 8.08 123.816 8.56 125.096 9.52C126.403 10.48 127.056 11.84 127.056 13.6C127.056 14.16 126.976 14.76 126.816 15.4C126.71 15.88 126.31 16.2933 125.616 16.64C124.923 16.9867 124.27 17.16 123.656 17.16C123.283 17.16 122.99 17.08 122.776 16.92C122.59 16.76 122.55 16.5333 122.656 16.24C122.816 15.68 122.896 15.12 122.896 14.56C122.896 13.68 122.67 12.9333 122.216 12.32C121.763 11.7067 121.096 11.28 120.216 11.04C119.736 10.9333 119.376 10.88 119.136 10.88C118.176 10.88 117.363 11.2267 116.696 11.92C116.056 12.5867 115.736 13.48 115.736 14.6ZM136.072 2.4C135.779 2.32 135.486 2.28 135.192 2.28C134.606 2.28 134.086 2.42667 133.632 2.72C133.046 3.04 132.712 3.36 132.632 3.68C132.286 4.93333 132.059 5.76 131.952 6.16V6.28C131.952 6.41333 132.006 6.54667 132.112 6.68C132.219 6.78667 132.339 6.86666 132.472 6.92C132.686 7.02667 132.926 7.08 133.192 7.08C133.619 7.08 134.126 6.96 134.712 6.72C135.326 6.45333 135.726 6.09333 135.912 5.64C136.072 5.18667 136.299 4.38667 136.592 3.24V3.16C136.592 3.02666 136.539 2.89333 136.432 2.76C136.326 2.6 136.206 2.48 136.072 2.4ZM134.512 18.44C134.352 19.5067 134.046 21.44 133.592 24.24C133.166 27.0133 132.806 29.5333 132.512 31.8C132.432 32.3067 132.072 32.7467 131.432 33.12C130.819 33.4667 130.192 33.64 129.552 33.64C129.126 33.64 128.792 33.56 128.552 33.4C128.339 33.2133 128.259 32.9467 128.312 32.6C128.766 29.9333 129.246 26.8933 129.752 23.48C130.286 20.04 130.659 17.5867 130.872 16.12L131.712 10.64C131.792 10.16 132.152 9.74667 132.792 9.4C133.459 9.05333 134.099 8.88 134.712 8.88C135.086 8.88 135.379 8.96 135.592 9.12C135.806 9.28 135.886 9.50667 135.832 9.8L134.512 18.44ZM142.512 29.32C143.605 27.8533 144.552 26.3067 145.352 24.68C146.045 23.3467 146.779 21.6933 147.552 19.72C148.325 17.7467 148.712 16.12 148.712 14.84C148.712 14.4133 148.659 14.08 148.552 13.84C147.752 13.8933 147.272 13.6533 147.112 13.12C146.925 12.4533 146.725 12.12 146.512 12.12C146.352 12.12 146.192 12.2267 146.032 12.44C145.872 12.6267 145.645 12.9733 145.352 13.48C144.979 14.04 144.579 14.8133 144.152 15.8C143.272 17.6667 142.552 19.4933 141.992 21.28C141.352 23.12 140.845 24.7867 140.472 26.28C140.099 27.7733 139.912 29.2 139.912 30.56C139.912 31.1467 139.952 31.72 140.032 32.28L140.872 31.4C141.379 30.8133 141.925 30.12 142.512 29.32ZM150.952 10.44C151.752 10.76 152.325 11.2133 152.672 11.8C153.019 12.3867 153.192 13.1333 153.192 14.04C153.192 14.8933 152.979 16.36 152.552 18.44C151.379 23.9333 150.419 28.9467 149.672 33.48C148.952 38.0133 148.432 42.4933 148.112 46.92C148.085 47.2933 148.032 47.6133 147.952 47.88C147.899 48.1733 147.779 48.52 147.592 48.92C147.299 49.5067 146.832 50.0267 146.192 50.48C145.579 50.96 144.992 51.2 144.432 51.2C143.925 51.2 143.539 50.9733 143.272 50.52L142.112 48.52C140.432 45.5867 139.005 43.1867 137.832 41.32C137.752 41.2133 137.712 41.08 137.712 40.92C137.712 40.4667 138.045 40.04 138.712 39.64C139.379 39.24 140.059 39.04 140.752 39.04C141.445 39.04 141.925 39.2667 142.192 39.72C142.565 40.4133 142.992 41.16 143.472 41.96L144.272 43.36C144.859 38.64 145.512 34.1867 146.232 30C145.005 31.7067 143.712 33.1733 142.352 34.4C141.019 35.6267 139.779 36.24 138.632 36.24C137.752 36.24 136.992 35.84 136.352 35.04C135.819 34.3733 135.552 33.4133 135.552 32.16C135.552 31.4667 135.605 30.7867 135.712 30.12C135.845 29.4533 136.045 28.5467 136.312 27.4L136.552 26.44C137.352 22.8133 138.539 19.28 140.112 15.84C140.859 14.2667 141.605 12.96 142.352 11.92C143.125 10.88 144.099 10.0933 145.272 9.56C145.992 9.21333 146.792 9.04 147.672 9.04C148.979 9.04 149.979 9.48 150.672 10.36L150.952 10.44ZM169.84 9.12C170.906 9.70667 171.44 10.9467 171.44 12.84C171.44 13.5333 171.373 14.3067 171.24 15.16C171.106 15.9867 170.96 16.7733 170.8 17.52L170.52 19.12L168.84 31.56C169.373 31.6933 169.6 32.0267 169.52 32.56C169.226 34.0267 168.186 34.96 166.4 35.36L166 35.4C165.546 35.4 165.146 35.3067 164.8 35.12C164.453 34.9333 164.306 34.64 164.36 34.24C165.48 26.1333 166.306 20.0533 166.84 16C166.866 15.8933 166.92 15.5867 167 15.08C167.106 14.5733 167.16 14.0933 167.16 13.64C167.16 12.7867 166.933 12.3467 166.48 12.32C166.133 12.2667 165.56 12.7467 164.76 13.76C163.986 14.7467 163.56 15.2933 163.48 15.4C161.88 17.2133 160.386 19.24 159 21.48C158.36 25.3733 157.853 28.52 157.48 30.92L157.28 32.2C157.2 32.7067 156.826 33.1467 156.16 33.52C155.493 33.8933 154.84 34.08 154.2 34.08C153.8 34.08 153.48 34 153.24 33.84C153.026 33.6533 152.946 33.3867 153 33.04C153.693 28.96 154.24 25.6267 154.64 23.04C154.48 22.88 154.4 22.6933 154.4 22.48C154.4 22.3467 154.44 22.2 154.52 22.04C154.6 21.9067 154.666 21.7867 154.72 21.68C154.8 21.5733 154.866 21.48 154.92 21.4L156.52 11.72C156.6 11.24 156.96 10.8267 157.6 10.48C158.24 10.1333 158.88 9.96 159.52 9.96C159.92 9.96 160.226 10.04 160.44 10.2C160.653 10.36 160.733 10.6 160.68 10.92C160.546 11.8 160.36 12.9333 160.12 14.32L161.8 12.52C162.92 11.4 163.986 10.48 165 9.76C166.013 9.04 167.04 8.68 168.08 8.68C168.746 8.68 169.333 8.82667 169.84 9.12Z" fill="black"/>
</svg>
